<svg xmlns="http://www.w3.org/2000/svg" version="1.1" xmlns:xlink="http://www.w3.org/1999/xlink" width="200" height="200"><svg xmlns="http://www.w3.org/2000/svg" version="1.1" xmlns:xlink="http://www.w3.org/1999/xlink" viewBox="0 0 200 200"><rect width="200" height="200" fill="url('#gradient')"></rect><defs><linearGradient id="SvgjsLinearGradient1001" gradientTransform="rotate(45 0.5 0.5)"><stop offset="0%" stop-color="#9ddeb5"></stop><stop offset="100%" stop-color="#19300e"></stop></linearGradient></defs><g><g fill="#107535" transform="matrix(2.216183720091379,0,0,2.216183720091379,9.003925376501279,114.40421703817238)" stroke="#000000" stroke-width="0.2"><path d="M9.08-7.79L3.74-5.95L9.08-4.15L9.08-1.15L0.45-4.67L0.45-7.27L9.08-10.78L9.08-7.79ZM16.88-4.82L14.70-4.82L14.70 0L11.27 0L11.27-14.22L16.94-14.22Q18.57-14.22 19.83-13.62Q21.08-13.02 21.77-11.91Q22.46-10.80 22.46-9.39L22.46-9.39Q22.46-7.31 20.97-6.07Q19.48-4.82 16.88-4.82L16.88-4.82ZM14.70-11.57L14.70-7.47L16.94-7.47Q17.94-7.47 18.46-7.97Q18.98-8.47 18.98-9.38L18.98-9.38Q18.98-10.37 18.45-10.97Q17.91-11.56 16.98-11.57L16.98-11.57L14.70-11.57ZM32.08 0L29.57-5.02L27.71-5.02L27.71 0L24.29 0L24.29-14.22L29.88-14.22Q32.41-14.22 33.84-13.10Q35.26-11.97 35.26-9.92L35.26-9.92Q35.26-8.44 34.66-7.46Q34.06-6.48 32.78-5.88L32.78-5.88L35.75-0.15L35.75 0L32.08 0ZM27.71-11.57L27.71-7.67L29.88-7.67Q30.86-7.67 31.35-8.18Q31.85-8.69 31.85-9.61Q31.85-10.53 31.35-11.05Q30.85-11.57 29.88-11.57L29.88-11.57L27.71-11.57ZM46.15-8.57L46.15-6.03L40.76-6.03L40.76-2.64L47.13-2.64L47.13 0L37.33 0L37.33-14.22L47.15-14.22L47.15-11.57L40.76-11.57L40.76-8.57L46.15-8.57ZM48.53-14.22L53.03-14.22L56.20-4.33L59.37-14.22L63.88-14.22L63.88 0L60.44 0L60.44-3.32L60.77-10.12L57.33 0L55.07 0L51.62-10.13L51.95-3.32L51.95 0L48.53 0L48.53-14.22ZM71.89-14.22L67.03 1.22L64.70 1.22L69.55-14.22L71.89-14.22ZM73.09-4.13L78.40-5.98L73.09-7.78L73.09-10.77L81.67-7.26L81.67-4.66L73.09-1.14L73.09-4.13Z"></path></g></g></svg><style>@media (prefers-color-scheme: light) { :root { filter: none; } }
@media (prefers-color-scheme: dark) { :root { filter: none; } }
</style></svg>